<?xml version="1.0" encoding="utf-8"?>
<!-- Generator: Adobe Illustrator 23.0.3, SVG Export Plug-In . SVG Version: 6.00 Build 0)  -->
<svg version="1.1" id="Layer_1" xmlns="http://www.w3.org/2000/svg" xmlns:xlink="http://www.w3.org/1999/xlink" x="0px" y="0px"
	 viewBox="0 0 271 270" style="enable-background:new 0 0 271 270;" xml:space="preserve">
<g>
	<path d="M135.3-0.1c43.9,0,87.8,0,131.8,0c3.6,0,3.6,0,3.6,3.5c0,87.7,0,175.3,0,263c0,3.6,0,3.6-3.6,3.6c-87.8,0-175.7,0-263.5,0
		c-3.6,0-3.7,0-3.7-3.6c0-87.7,0-175.3,0-263c0-3.6,0-3.6,3.6-3.6C47.4-0.1,91.3-0.1,135.3-0.1z M135.4,23.1c-36.2,0-72.3,0-108.5,0
		c-3.5,0-3.5,0-3.5,3.4c0,72.2,0,144.5,0,216.7c0,3.6,0,3.6,3.6,3.6c72.2,0,144.3,0,216.5,0c3.7,0,3.8,0,3.8-3.7
		c0-72.2,0-144.3,0-216.5c0-3.6,0-3.6-3.6-3.6C207.5,23.1,171.4,23.1,135.4,23.1z"/>
	<path d="M108.5,96.4c35.9-0.2,65.5,29.4,65.3,65.4c-0.2,36.1-30,65.1-65.4,64.9c-35.6-0.1-65.2-29-65.2-65.4
		C43.2,125.8,72.3,96.3,108.5,96.4z"/>
	<path d="M160.1,52.5c18.6,0,37.2,0,55.7,0c3.5,0,3.5,0,3.5,3.4c0,37,0,74,0,111c0,3.4,0,3.4-3.5,3.4c-7.3,0-14.7-0.1-22,0
		c-2.2,0-2.9-0.6-2.7-2.9c1.4-24.8-6.5-46.4-23.8-64.2c-9.7-10-21.4-17-34.9-21c-9.4-2.7-19-4.2-28.8-3.4c-1.9,0.1-2.3-0.6-2.3-2.2
		c0-7.1,0.1-14.2,0-21.2c0-2.3,0.7-3,3-3C122.8,52.5,141.4,52.5,160.1,52.5z"/>
</g>
</svg>
